<svg width="209" height="61" viewBox="0 0 209 61" fill="none" xmlns="http://www.w3.org/2000/svg">
<path d="M23.7304 28.4319H18.9974C18.4194 28.4319 17.9352 28.2288 17.5446 27.8226C17.1541 27.4165 16.9589 26.9323 16.9589 26.3699C16.9589 25.8076 17.1541 25.3233 17.5446 24.9172C17.9352 24.4954 18.4194 24.2846 18.9974 24.2846L25.7689 24.3314C26.3625 24.3314 26.8702 24.5267 27.292 24.9172C27.7137 25.2921 27.9246 25.7763 27.9246 26.3699V33.7273C27.9246 34.0553 27.8543 34.3443 27.7137 34.5942C27.5888 34.8442 27.4169 35.0785 27.1982 35.2972C25.48 36.8749 23.6602 38.0074 21.7388 38.6947C19.8331 39.382 17.8649 39.7256 15.8342 39.7256C14.4439 39.7256 13.1005 39.5382 11.804 39.1633C10.5075 38.7884 9.28909 38.2651 8.14878 37.5934C7.02409 36.9217 5.98531 36.1094 5.03245 35.1566C4.0952 34.2037 3.29074 33.1571 2.61904 32.0168C1.94735 30.8609 1.42406 29.619 1.04916 28.2913C0.674265 26.9635 0.486816 25.5889 0.486816 24.1674C0.486816 22.7459 0.666455 21.3713 1.02573 20.0435C1.38501 18.7158 1.90049 17.4739 2.57218 16.318C3.24387 15.1464 4.04053 14.0842 4.96215 13.1314C5.89939 12.1785 6.94598 11.3584 8.10192 10.6711C9.25785 9.98379 10.4997 9.45269 11.8275 9.07779C13.1552 8.68727 14.5455 8.49201 15.9982 8.49201C18.1538 8.49201 20.1611 8.88253 22.02 9.66356C23.8788 10.4446 25.5893 11.6083 27.1514 13.1548C27.5575 13.5922 27.7606 14.0764 27.7606 14.6075C27.7606 14.8887 27.6981 15.1542 27.5731 15.4042C27.4638 15.6385 27.3076 15.8494 27.1045 16.0368C26.9171 16.2243 26.6906 16.3727 26.425 16.482C26.1751 16.5914 25.9095 16.646 25.6284 16.646C25.3784 16.646 25.1285 16.5992 24.8786 16.5054C24.6443 16.4117 24.4256 16.2633 24.2225 16.0602C23.0822 14.9356 21.8091 14.092 20.4032 13.5297C18.9974 12.9673 17.5368 12.6862 16.0216 12.6862C14.4908 12.6862 13.0303 12.983 11.64 13.5766C10.2654 14.1545 9.05478 14.959 8.00819 15.99C6.97722 17.0053 6.15714 18.2159 5.54793 19.6218C4.93872 21.012 4.63412 22.5194 4.63412 24.144C4.63412 25.6748 4.9231 27.1353 5.50107 28.5256C6.07903 29.9002 6.87569 31.1108 7.89104 32.1574C8.90638 33.204 10.1014 34.0397 11.476 34.6645C12.8662 35.2893 14.358 35.6018 15.9513 35.6018C17.3728 35.6018 18.7396 35.3909 20.0518 34.9691C21.3639 34.5474 22.5901 33.8366 23.7304 32.8369V28.4319Z" fill="#05A93D"/>
<path d="M32.1891 28.8068C32.1891 27.1666 32.5015 25.6201 33.1263 24.1674C33.7511 22.7147 34.6025 21.4494 35.6803 20.3716C36.7581 19.2781 38.0156 18.419 39.4527 17.7941C40.9054 17.1537 42.4519 16.8335 44.092 16.8335H44.2092C44.9121 16.8335 45.4432 17.0287 45.8025 17.4193C46.1774 17.8098 46.3649 18.3018 46.3649 18.8954C46.3649 19.489 46.154 19.981 45.7322 20.3716C45.3105 20.7621 44.8028 20.9573 44.2092 20.9573H44.092C43.0298 20.9573 42.0301 21.1682 41.0929 21.59C40.1556 21.9961 39.3277 22.5585 38.6092 23.277C37.9062 23.98 37.3439 24.8078 36.9221 25.7607C36.516 26.7136 36.3129 27.7289 36.3129 28.8068V37.3825C36.3129 37.9761 36.1177 38.4682 35.7272 38.8587C35.3523 39.2492 34.8836 39.4445 34.3213 39.4445C34.0401 39.4445 33.7668 39.3976 33.5012 39.3039C33.2513 39.1945 33.0248 39.0461 32.8217 38.8587C32.6343 38.6712 32.478 38.4525 32.3531 38.2026C32.2437 37.9527 32.1891 37.6793 32.1891 37.3825V28.8068Z" fill="#05A93D"/>
<path d="M50.9808 28.2913C50.9808 29.291 51.1682 30.2361 51.5431 31.1264C51.9336 32.0012 52.4569 32.7744 53.113 33.4461C53.7691 34.1022 54.5345 34.6255 55.4093 35.016C56.2996 35.3909 57.2525 35.5783 58.2678 35.5783C59.2988 35.5783 60.2517 35.3909 61.1264 35.016C62.0168 34.6255 62.79 34.1022 63.4461 33.4461C64.1022 32.7744 64.6177 32.0012 64.9926 31.1264C65.3675 30.2361 65.5549 29.291 65.5549 28.2913C65.5549 27.2915 65.3675 26.3543 64.9926 25.4795C64.6177 24.5892 64.1022 23.8159 63.4461 23.1599C62.79 22.5038 62.0168 21.9883 61.1264 21.6134C60.2517 21.2229 59.2988 21.0276 58.2678 21.0276C57.2525 21.0276 56.2996 21.2229 55.4093 21.6134C54.5345 21.9883 53.7691 22.5038 53.113 23.1599C52.4569 23.8159 51.9336 24.5892 51.5431 25.4795C51.1682 26.3543 50.9808 27.2915 50.9808 28.2913ZM46.8335 28.2913C46.8335 26.7136 47.1303 25.2296 47.7239 23.8394C48.3331 22.4491 49.1532 21.2385 50.1841 20.2075C51.2307 19.161 52.4413 18.3409 53.8159 17.7473C55.2062 17.1381 56.6902 16.8335 58.2678 16.8335C59.8612 16.8335 61.3529 17.1381 62.7432 17.7473C64.1334 18.3409 65.344 19.161 66.375 20.2075C67.406 21.2385 68.2182 22.4491 68.8118 23.8394C69.4054 25.2296 69.7022 26.7136 69.7022 28.2913C69.7022 29.869 69.4054 31.3529 68.8118 32.7432C68.2182 34.1334 67.406 35.344 66.375 36.375C65.344 37.406 64.1334 38.226 62.7432 38.8353C61.3529 39.4288 59.8612 39.7256 58.2678 39.7256C56.6902 39.7256 55.2062 39.4288 53.8159 38.8353C52.4413 38.226 51.2307 37.406 50.1841 36.375C49.1532 35.344 48.3331 34.1334 47.7239 32.7432C47.1303 31.3529 46.8335 29.869 46.8335 28.2913Z" fill="#05A93D"/>
<path d="M72.8185 18.8954C72.8185 18.3174 73.0138 17.8332 73.4043 17.4427C73.8105 17.0365 74.3025 16.8335 74.8805 16.8335C75.4428 16.8335 75.9271 17.0365 76.3332 17.4427C76.7393 17.8332 76.9424 18.3174 76.9424 18.8954V28.8302C76.958 29.7674 77.1377 30.65 77.4813 31.4779C77.8406 32.2902 78.317 33.0009 78.9106 33.6101C79.5198 34.2193 80.2306 34.7036 81.0429 35.0629C81.8551 35.4065 82.7377 35.5783 83.6906 35.5783C84.6434 35.5783 85.5026 35.3987 86.268 35.0394C87.049 34.6801 87.7129 34.1881 88.2596 33.5633C88.8064 32.9384 89.2281 32.2121 89.5249 31.3842C89.8373 30.5407 89.9935 29.6425 89.9935 28.6896V18.8954C89.9935 18.6142 90.0482 18.3487 90.1575 18.0988C90.2825 17.8488 90.4387 17.6301 90.6262 17.4427C90.8136 17.2552 91.0323 17.1068 91.2822 16.9975C91.5478 16.8881 91.8212 16.8335 92.1023 16.8335C92.6959 16.8335 93.1802 17.0365 93.5551 17.4427C93.9456 17.8332 94.1408 18.3174 94.1408 18.8954V28.5959V28.713C94.1408 30.2282 93.8753 31.6575 93.3442 33.0009C92.8287 34.3287 92.1101 35.4924 91.1885 36.4921C90.2669 37.4919 89.1656 38.2807 87.8847 38.8587C86.6038 39.4366 85.2058 39.7256 83.6906 39.7256C82.1597 39.7256 80.7304 39.4366 79.4027 38.8587C78.0905 38.2807 76.9424 37.4919 75.9583 36.4921C74.9898 35.4924 74.2244 34.3287 73.6621 33.0009C73.0997 31.6575 72.8185 30.2282 72.8185 28.713V18.8954Z" fill="#05A93D"/>
<path d="M97.8429 27.9632V27.8695C97.8429 26.3543 98.1163 24.925 98.663 23.5816C99.2254 22.2382 99.9908 21.0667 100.959 20.067C101.928 19.0672 103.068 18.2784 104.38 17.7004C105.692 17.1225 107.106 16.8335 108.621 16.8335C110.152 16.8335 111.574 17.1225 112.886 17.7004C114.213 18.2784 115.362 19.0672 116.33 20.067C117.314 21.0667 118.08 22.2382 118.626 23.5816C119.189 24.925 119.47 26.3543 119.47 27.8695V27.9867V37.406C119.47 37.9995 119.275 38.4916 118.884 38.8821C118.494 39.257 118.009 39.4445 117.431 39.4445C116.853 39.4445 116.361 39.257 115.955 38.8821C115.549 38.4916 115.346 37.9995 115.346 37.406V27.9632V27.9164C115.33 26.9635 115.151 26.0731 114.807 25.2452C114.463 24.4017 113.987 23.6675 113.378 23.0427C112.784 22.4179 112.081 21.9258 111.269 21.5665C110.457 21.1917 109.574 21.0042 108.621 21.0042C107.668 21.0042 106.786 21.1838 105.974 21.5431C105.177 21.8868 104.482 22.371 103.888 22.9958C103.295 23.6207 102.826 24.3548 102.482 25.1984C102.154 26.0263 101.99 26.9166 101.99 27.8695V37.406C101.99 37.9995 101.795 38.4916 101.404 38.8821C101.03 39.257 100.553 39.4445 99.9752 39.4445C99.694 39.4445 99.4206 39.3976 99.1551 39.3039C98.9051 39.1945 98.6786 39.0539 98.4756 38.8821C98.2881 38.6947 98.1319 38.476 98.007 38.226C97.8976 37.9761 97.8429 37.7028 97.8429 37.406V27.9632Z" fill="#05A93D"/>
<path d="M122.75 28.2913C122.75 26.7136 123.047 25.2296 123.641 23.8394C124.25 22.4491 125.07 21.2385 126.101 20.2075C127.147 19.161 128.358 18.3409 129.733 17.7473C131.123 17.1381 132.607 16.8335 134.185 16.8335C135.122 16.8335 135.965 16.9272 136.715 17.1146C137.465 17.3021 138.129 17.5755 138.707 17.9347C139.3 18.294 139.824 18.7314 140.277 19.2469C140.73 19.7624 141.128 20.3481 141.472 21.0042V2.1603C141.472 1.55109 141.667 1.04342 142.057 0.637277C142.448 0.215518 142.94 0.00463867 143.534 0.00463867C144.127 0.00463867 144.619 0.215518 145.01 0.637277C145.416 1.04342 145.619 1.55109 145.619 2.1603V28.2913V28.4319C145.603 29.9939 145.291 31.4623 144.682 32.8369C144.088 34.1959 143.276 35.3909 142.245 36.4219C141.214 37.4372 140.003 38.2417 138.613 38.8353C137.238 39.4288 135.762 39.7256 134.185 39.7256C132.607 39.7256 131.123 39.4288 129.733 38.8353C128.358 38.226 127.147 37.406 126.101 36.375C125.07 35.344 124.25 34.1334 123.641 32.7432C123.047 31.3529 122.75 29.869 122.75 28.2913ZM126.897 28.2913C126.897 29.291 127.085 30.2361 127.46 31.1264C127.85 32.0012 128.374 32.7744 129.03 33.4461C129.686 34.1022 130.451 34.6255 131.326 35.016C132.216 35.3909 133.169 35.5783 134.185 35.5783C135.215 35.5783 136.168 35.3909 137.043 35.016C137.934 34.6255 138.707 34.1022 139.363 33.4461C140.019 32.7744 140.534 32.0012 140.909 31.1264C141.284 30.2361 141.472 29.291 141.472 28.2913C141.472 27.2915 141.284 26.3543 140.909 25.4795C140.534 24.5892 140.019 23.8159 139.363 23.1599C138.707 22.5038 137.934 21.9883 137.043 21.6134C136.168 21.2229 135.215 21.0276 134.185 21.0276C133.169 21.0276 132.216 21.2229 131.326 21.6134C130.451 21.9883 129.686 22.5038 129.03 23.1599C128.374 23.8159 127.85 24.5892 127.46 25.4795C127.085 26.3543 126.897 27.2915 126.897 28.2913Z" fill="#05A93D"/>
<path d="M160.638 18.8954C160.638 18.3174 160.833 17.8332 161.224 17.4427C161.63 17.0365 162.122 16.8335 162.7 16.8335C163.263 16.8335 163.747 17.0365 164.153 17.4427C164.559 17.8332 164.762 18.3174 164.762 18.8954V28.8302C164.778 29.7674 164.957 30.65 165.301 31.4779C165.66 32.2902 166.137 33.0009 166.73 33.6101C167.34 34.2193 168.05 34.7036 168.863 35.0629C169.675 35.4065 170.557 35.5783 171.51 35.5783C172.463 35.5783 173.322 35.3987 174.088 35.0394C174.869 34.6801 175.533 34.1881 176.079 33.5633C176.626 32.9384 177.048 32.2121 177.345 31.3842C177.657 30.5407 177.813 29.6425 177.813 28.6896V18.8954C177.813 18.6142 177.868 18.3487 177.977 18.0988C178.102 17.8488 178.258 17.6301 178.446 17.4427C178.633 17.2552 178.852 17.1068 179.102 16.9975C179.367 16.8881 179.641 16.8335 179.922 16.8335C180.516 16.8335 181 17.0365 181.375 17.4427C181.765 17.8332 181.961 18.3174 181.961 18.8954V28.5959V28.713C181.961 30.2282 181.695 31.6575 181.164 33.0009C180.648 34.3287 179.93 35.4924 179.008 36.4921C178.087 37.4919 176.985 38.2807 175.704 38.8587C174.424 39.4366 173.025 39.7256 171.51 39.7256C169.979 39.7256 168.55 39.4366 167.222 38.8587C165.91 38.2807 164.762 37.4919 163.778 36.4921C162.809 35.4924 162.044 34.3287 161.482 33.0009C160.919 31.6575 160.638 30.2282 160.638 28.713V18.8954Z" fill="#05A93D"/>
<path d="M186.131 28.2913C186.131 26.7136 186.428 25.2296 187.022 23.8394C187.631 22.4491 188.451 21.2385 189.482 20.2075C190.528 19.161 191.747 18.3409 193.137 17.7473C194.527 17.1381 196.011 16.8335 197.589 16.8335C199.167 16.8335 200.651 17.1381 202.041 17.7473C203.431 18.3409 204.642 19.161 205.673 20.2075C206.704 21.2385 207.516 22.4491 208.11 23.8394C208.703 25.2296 209 26.7136 209 28.2913C209 29.869 208.703 31.3529 208.11 32.7432C207.516 34.1334 206.704 35.344 205.673 36.375C204.642 37.406 203.431 38.226 202.041 38.8353C200.651 39.4288 199.167 39.7256 197.589 39.7256C196.168 39.7256 194.84 39.4991 193.606 39.0461C192.372 38.5775 191.255 37.9214 190.255 37.0779V56.8608C190.255 57.4544 190.068 57.9621 189.693 58.3839C189.333 58.8056 188.849 59.0165 188.24 59.0165C187.662 59.0165 187.162 58.8056 186.74 58.3839C186.334 57.9777 186.131 57.4701 186.131 56.8608V28.2913ZM190.279 28.2913C190.279 29.291 190.466 30.2361 190.841 31.1264C191.231 32.0012 191.755 32.7744 192.411 33.4461C193.067 34.1022 193.84 34.6255 194.73 35.016C195.621 35.3909 196.574 35.5783 197.589 35.5783C198.604 35.5783 199.557 35.3909 200.448 35.016C201.338 34.6255 202.111 34.1022 202.767 33.4461C203.423 32.7744 203.939 32.0012 204.314 31.1264C204.689 30.2361 204.876 29.291 204.876 28.2913C204.876 27.2915 204.689 26.3543 204.314 25.4795C203.939 24.5892 203.423 23.8159 202.767 23.1599C202.111 22.5038 201.338 21.9883 200.448 21.6134C199.557 21.2229 198.604 21.0276 197.589 21.0276C196.574 21.0276 195.621 21.2229 194.73 21.6134C193.84 21.9883 193.067 22.5038 192.411 23.1599C191.755 23.8159 191.231 24.5892 190.841 25.4795C190.466 26.3543 190.279 27.2915 190.279 28.2913Z" fill="#05A93D"/>
<path d="M160.638 18.8954C160.638 18.3174 160.833 17.8332 161.224 17.4427C161.63 17.0365 162.122 16.8335 162.7 16.8335C163.263 16.8335 163.747 17.0365 164.153 17.4427C164.559 17.8332 164.762 18.3174 164.762 18.8954V28.8302C164.778 29.7674 164.957 30.65 165.301 31.4779C165.66 32.2902 166.137 33.0009 166.73 33.6101C167.34 34.2193 168.05 34.7036 168.863 35.0629C169.675 35.4065 170.557 35.5783 171.51 35.5783C172.463 35.5783 173.322 35.3987 174.088 35.0394C174.869 34.6801 175.533 34.1881 176.079 33.5633C176.626 32.9384 177.048 32.2121 177.345 31.3842C177.657 30.5407 177.813 29.6425 177.813 28.6896V18.8954C177.813 18.6142 177.868 18.3487 177.977 18.0988C178.102 17.8488 178.258 17.6301 178.446 17.4427C178.633 17.2552 178.852 17.1068 179.102 16.9975C179.367 16.8881 179.641 16.8335 179.922 16.8335C180.516 16.8335 181 17.0365 181.375 17.4427C181.765 17.8332 181.961 18.3174 181.961 18.8954V28.5959V28.713C181.961 30.2282 181.695 31.6575 181.164 33.0009C180.648 34.3287 179.93 35.4924 179.008 36.4921C178.087 37.4919 176.985 38.2807 175.704 38.8587C174.424 39.4366 173.025 39.7256 171.51 39.7256C169.979 39.7256 168.55 39.4366 167.222 38.8587C165.91 38.2807 164.762 37.4919 163.778 36.4921C162.809 35.4924 162.044 34.3287 161.482 33.0009C160.919 31.6575 160.638 30.2282 160.638 28.713V18.8954Z" fill="#05A93D"/>
<path d="M186.131 28.2913C186.131 26.7136 186.428 25.2296 187.022 23.8394C187.631 22.4491 188.451 21.2385 189.482 20.2075C190.528 19.161 191.747 18.3409 193.137 17.7473C194.527 17.1381 196.011 16.8335 197.589 16.8335C199.167 16.8335 200.651 17.1381 202.041 17.7473C203.431 18.3409 204.642 19.161 205.673 20.2075C206.704 21.2385 207.516 22.4491 208.11 23.8394C208.703 25.2296 209 26.7136 209 28.2913C209 29.869 208.703 31.3529 208.11 32.7432C207.516 34.1334 206.704 35.344 205.673 36.375C204.642 37.406 203.431 38.226 202.041 38.8353C200.651 39.4288 199.167 39.7256 197.589 39.7256C196.168 39.7256 194.84 39.4991 193.606 39.0461C192.372 38.5775 191.255 37.9214 190.255 37.0779V56.8608C190.255 57.4544 190.068 57.9621 189.693 58.3839C189.333 58.8056 188.849 59.0165 188.24 59.0165C187.662 59.0165 187.162 58.8056 186.74 58.3839C186.334 57.9777 186.131 57.4701 186.131 56.8608V28.2913ZM190.279 28.2913C190.279 29.291 190.466 30.2361 190.841 31.1264C191.231 32.0012 191.755 32.7744 192.411 33.4461C193.067 34.1022 193.84 34.6255 194.73 35.016C195.621 35.3909 196.574 35.5783 197.589 35.5783C198.604 35.5783 199.557 35.3909 200.448 35.016C201.338 34.6255 202.111 34.1022 202.767 33.4461C203.423 32.7744 203.939 32.0012 204.314 31.1264C204.689 30.2361 204.876 29.291 204.876 28.2913C204.876 27.2915 204.689 26.3543 204.314 25.4795C203.939 24.5892 203.423 23.8159 202.767 23.1599C202.111 22.5038 201.338 21.9883 200.448 21.6134C199.557 21.2229 198.604 21.0276 197.589 21.0276C196.574 21.0276 195.621 21.2229 194.73 21.6134C193.84 21.9883 193.067 22.5038 192.411 23.1599C191.755 23.8159 191.231 24.5892 190.841 25.4795C190.466 26.3543 190.279 27.2915 190.279 28.2913Z" fill="#05A93D"/>
<path d="M42.7786 48.6598C43.5146 48.6598 44.1293 48.9064 44.6226 49.3997C45.1159 49.893 45.3625 50.5077 45.3625 51.2437C45.3625 51.9797 45.1159 52.5944 44.6226 53.0877C44.1293 53.581 43.5146 53.8276 42.7786 53.8276H40.6645V56.8813H39.8423V48.6598H42.7786ZM42.7786 53.0525C43.2875 53.0525 43.7064 52.8841 44.0353 52.5474C44.372 52.2029 44.5403 51.7683 44.5403 51.2437C44.5403 50.7191 44.372 50.2884 44.0353 49.9518C43.7064 49.6072 43.2875 49.435 42.7786 49.435H40.6645V53.0525H42.7786ZM48.4347 52.5474C48.4347 52.8136 48.5521 53.025 48.787 53.1816C49.0219 53.3382 49.3077 53.4596 49.6444 53.5457C49.9811 53.6319 50.3178 53.7298 50.6545 53.8394C50.9912 53.9412 51.277 54.1173 51.5119 54.3679C51.7468 54.6106 51.8642 54.9317 51.8642 55.331C51.8642 55.8321 51.6646 56.2393 51.2652 56.5525C50.8737 56.8657 50.3648 57.0223 49.7384 57.0223C49.1746 57.0223 48.6931 56.897 48.2937 56.6464C47.9022 56.3959 47.6282 56.0709 47.4716 55.6716L48.1293 55.284C48.2389 55.5894 48.4347 55.8321 48.7165 56.0122C49.0063 56.1845 49.3469 56.2706 49.7384 56.2706C50.122 56.2706 50.4431 56.1962 50.7015 56.0474C50.9599 55.8908 51.0891 55.652 51.0891 55.331C51.0891 55.0648 50.9716 54.8534 50.7367 54.6968C50.5018 54.5402 50.216 54.4188 49.8793 54.3327C49.5426 54.2465 49.2059 54.1526 48.8692 54.0508C48.5325 53.9412 48.2467 53.765 48.0118 53.5223C47.7769 53.2717 47.6595 52.9467 47.6595 52.5474C47.6595 52.0698 47.8474 51.6704 48.2233 51.3494C48.6069 51.0284 49.0885 50.8679 49.6679 50.8679C50.1455 50.8679 50.5644 50.9775 50.9246 51.1967C51.2848 51.4081 51.551 51.6979 51.7233 52.0659L51.0773 52.4417C50.8502 51.8936 50.3804 51.6196 49.6679 51.6196C49.3312 51.6196 49.0415 51.7018 48.7988 51.8662C48.556 52.0228 48.4347 52.2499 48.4347 52.5474ZM58.6143 51.0088H59.4364L56.923 57.4216C56.6959 58.001 56.3709 58.4552 55.9481 58.7841C55.5331 59.1207 55.0672 59.2695 54.5505 59.2304V58.5022C55.2552 58.5805 55.7915 58.1733 56.1595 57.2807L56.3122 56.9166L53.6813 51.0088H54.5035L56.7116 55.93L58.6143 51.0088ZM64.4073 57.0223C63.5225 57.0223 62.7865 56.7287 62.1993 56.1414C61.612 55.5463 61.3184 54.8142 61.3184 53.9451C61.3184 53.0759 61.612 52.3477 62.1993 51.7605C62.7865 51.1654 63.5225 50.8679 64.4073 50.8679C64.9868 50.8679 65.5075 51.0088 65.9694 51.2907C66.4314 51.5647 66.7681 51.9367 66.9795 52.4065L66.3453 52.7706C66.1887 52.4182 65.9342 52.1403 65.5818 51.9367C65.2373 51.7253 64.8458 51.6196 64.4073 51.6196C63.7574 51.6196 63.2093 51.8466 62.763 52.3008C62.3167 52.7471 62.0936 53.2952 62.0936 53.9451C62.0936 54.595 62.3167 55.147 62.763 55.6011C63.2093 56.0474 63.7574 56.2706 64.4073 56.2706C64.8458 56.2706 65.2373 56.1688 65.5818 55.9652C65.9264 55.7538 66.1965 55.4719 66.3922 55.1196L67.0382 55.4954C66.7955 55.9652 66.4392 56.3372 65.9694 56.6112C65.4996 56.8853 64.9789 57.0223 64.4073 57.0223ZM72.4264 50.8679C73.1389 50.8679 73.6988 51.0871 74.1059 51.5256C74.5209 51.9562 74.7284 52.5396 74.7284 53.2756V56.8813H73.9532V53.2756C73.9532 52.751 73.8123 52.3438 73.5304 52.0541C73.2564 51.7644 72.8649 51.6196 72.3559 51.6196C71.7921 51.6196 71.3341 51.7996 70.9817 52.1598C70.6294 52.5122 70.4532 53.0603 70.4532 53.8041V56.8813H69.678V48.6598H70.4532V51.9249C70.8917 51.2202 71.5494 50.8679 72.4264 50.8679ZM80.4673 50.8679C81.3364 50.8679 82.0372 51.1772 82.5696 51.7957C83.1099 52.4065 83.38 53.1308 83.38 53.9686C83.38 54.0547 83.3722 54.1761 83.3565 54.3327H78.2005C78.2788 54.9277 78.5293 55.4015 78.9521 55.7538C79.3828 56.0983 79.9113 56.2706 80.5377 56.2706C80.984 56.2706 81.3677 56.1806 81.6887 56.0005C82.0176 55.8125 82.2643 55.5698 82.4287 55.2723L83.1099 55.6716C82.8515 56.0866 82.4992 56.4155 82.0528 56.6582C81.6065 56.9009 81.0976 57.0223 80.526 57.0223C79.602 57.0223 78.8504 56.7326 78.2709 56.1532C77.6915 55.5737 77.4018 54.8377 77.4018 53.9451C77.4018 53.0681 77.6876 52.336 78.2592 51.7487C78.8308 51.1615 79.5668 50.8679 80.4673 50.8679ZM80.4673 51.6196C79.8565 51.6196 79.3436 51.8036 78.9287 52.1716C78.5215 52.5318 78.2788 53.0016 78.2005 53.581H82.5814C82.5031 52.9624 82.2643 52.4809 81.8649 52.1363C81.4656 51.7918 80.9997 51.6196 80.4673 51.6196ZM91.1903 48.6598H91.9655V56.8813H91.1903V55.7303C90.6501 56.5916 89.8592 57.0223 88.8178 57.0223C87.98 57.0223 87.2636 56.7247 86.6685 56.1297C86.0812 55.5346 85.7876 54.8064 85.7876 53.9451C85.7876 53.0838 86.0812 52.3556 86.6685 51.7605C87.2636 51.1654 87.98 50.8679 88.8178 50.8679C89.8592 50.8679 90.6501 51.2985 91.1903 52.1598V48.6598ZM87.2322 55.6011C87.6786 56.0474 88.2267 56.2706 88.8765 56.2706C89.5264 56.2706 90.0745 56.0474 90.5209 55.6011C90.9672 55.147 91.1903 54.595 91.1903 53.9451C91.1903 53.2952 90.9672 52.7471 90.5209 52.3008C90.0745 51.8466 89.5264 51.6196 88.8765 51.6196C88.2267 51.6196 87.6786 51.8466 87.2322 52.3008C86.7859 52.7471 86.5628 53.2952 86.5628 53.9451C86.5628 54.595 86.7859 55.147 87.2322 55.6011ZM97.8468 50.8679C98.7159 50.8679 99.4167 51.1772 99.9491 51.7957C100.489 52.4065 100.76 53.1308 100.76 53.9686C100.76 54.0547 100.752 54.1761 100.736 54.3327H95.58C95.6583 54.9277 95.9088 55.4015 96.3316 55.7538C96.7623 56.0983 97.2908 56.2706 97.9172 56.2706C98.3635 56.2706 98.7472 56.1806 99.0682 56.0005C99.3971 55.8125 99.6438 55.5698 99.8082 55.2723L100.489 55.6716C100.231 56.0866 99.8787 56.4155 99.4323 56.6582C98.986 56.9009 98.4771 57.0223 97.9055 57.0223C96.9815 57.0223 96.2299 56.7326 95.6504 56.1532C95.071 55.5737 94.7813 54.8377 94.7813 53.9451C94.7813 53.0681 95.0671 52.336 95.6387 51.7487C96.2103 51.1615 96.9463 50.8679 97.8468 50.8679ZM97.8468 51.6196C97.236 51.6196 96.7231 51.8036 96.3082 52.1716C95.901 52.5318 95.6583 53.0016 95.58 53.581H99.9609C99.8826 52.9624 99.6438 52.4809 99.2444 52.1363C98.8451 51.7918 98.3792 51.6196 97.8468 51.6196ZM103.519 56.8813V48.3074H104.295V56.8813H103.519ZM108.253 49.5994C108.144 49.709 108.011 49.7638 107.854 49.7638C107.697 49.7638 107.564 49.709 107.455 49.5994C107.345 49.4898 107.29 49.3567 107.29 49.2001C107.29 49.0435 107.345 48.9104 107.455 48.8007C107.564 48.6911 107.697 48.6363 107.854 48.6363C108.011 48.6363 108.144 48.6911 108.253 48.8007C108.363 48.9104 108.418 49.0435 108.418 49.2001C108.418 49.3567 108.363 49.4898 108.253 49.5994ZM107.466 56.8813V51.0088H108.242V56.8813H107.466ZM114.15 57.0223C113.265 57.0223 112.529 56.7287 111.942 56.1414C111.355 55.5463 111.061 54.8142 111.061 53.9451C111.061 53.0759 111.355 52.3477 111.942 51.7605C112.529 51.1654 113.265 50.8679 114.15 50.8679C114.729 50.8679 115.25 51.0088 115.712 51.2907C116.174 51.5647 116.511 51.9367 116.722 52.4065L116.088 52.7706C115.931 52.4182 115.677 52.1403 115.325 51.9367C114.98 51.7253 114.589 51.6196 114.15 51.6196C113.5 51.6196 112.952 51.8466 112.506 52.3008C112.059 52.7471 111.836 53.2952 111.836 53.9451C111.836 54.595 112.059 55.147 112.506 55.6011C112.952 56.0474 113.5 56.2706 114.15 56.2706C114.589 56.2706 114.98 56.1688 115.325 55.9652C115.669 55.7538 115.939 55.4719 116.135 55.1196L116.781 55.4954C116.538 55.9652 116.182 56.3372 115.712 56.6112C115.242 56.8853 114.722 57.0223 114.15 57.0223ZM124.001 48.6598H124.823V56.8813H124.001V48.6598ZM130.866 50.8679C131.578 50.8679 132.138 51.0871 132.545 51.5256C132.96 51.9562 133.168 52.5396 133.168 53.2756V56.8813H132.393V53.2756C132.393 52.751 132.252 52.3438 131.97 52.0541C131.696 51.7644 131.304 51.6196 130.795 51.6196C130.232 51.6196 129.774 51.7996 129.421 52.1598C129.069 52.5122 128.893 53.0603 128.893 53.8041V56.8813H128.118V51.0088H128.893V51.9249C129.331 51.2202 129.989 50.8679 130.866 50.8679ZM136.804 52.5474C136.804 52.8136 136.922 53.025 137.157 53.1816C137.392 53.3382 137.678 53.4596 138.014 53.5457C138.351 53.6319 138.688 53.7298 139.024 53.8394C139.361 53.9412 139.647 54.1173 139.882 54.3679C140.117 54.6106 140.234 54.9317 140.234 55.331C140.234 55.8321 140.034 56.2393 139.635 56.5525C139.244 56.8657 138.735 57.0223 138.108 57.0223C137.544 57.0223 137.063 56.897 136.664 56.6464C136.272 56.3959 135.998 56.0709 135.841 55.6716L136.499 55.284C136.609 55.5894 136.804 55.8321 137.086 56.0122C137.376 56.1845 137.717 56.2706 138.108 56.2706C138.492 56.2706 138.813 56.1962 139.071 56.0474C139.33 55.8908 139.459 55.652 139.459 55.331C139.459 55.0648 139.341 54.8534 139.106 54.6968C138.872 54.5402 138.586 54.4188 138.249 54.3327C137.912 54.2465 137.576 54.1526 137.239 54.0508C136.902 53.9412 136.617 53.765 136.382 53.5223C136.147 53.2717 136.029 52.9467 136.029 52.5474C136.029 52.0698 136.217 51.6704 136.593 51.3494C136.977 51.0284 137.458 50.8679 138.038 50.8679C138.515 50.8679 138.934 50.9775 139.294 51.1967C139.655 51.4081 139.921 51.6979 140.093 52.0659L139.447 52.4417C139.22 51.8936 138.75 51.6196 138.038 51.6196C137.701 51.6196 137.411 51.7018 137.169 51.8662C136.926 52.0228 136.804 52.2499 136.804 52.5474ZM145.937 51.7605H144.246V55.3193C144.246 55.6403 144.308 55.8713 144.434 56.0122C144.559 56.1453 144.747 56.2158 144.997 56.2236C145.248 56.2236 145.561 56.2158 145.937 56.2001V56.8813C145.115 57.0066 144.496 56.9479 144.081 56.7052C143.674 56.4624 143.471 56.0005 143.471 55.3193V51.7605H142.237V51.0088H143.471V49.5994L144.246 49.3645V51.0088H145.937V51.7605ZM149.543 49.5994C149.433 49.709 149.3 49.7638 149.143 49.7638C148.987 49.7638 148.854 49.709 148.744 49.5994C148.635 49.4898 148.58 49.3567 148.58 49.2001C148.58 49.0435 148.635 48.9104 148.744 48.8007C148.854 48.6911 148.987 48.6363 149.143 48.6363C149.3 48.6363 149.433 48.6911 149.543 48.8007C149.652 48.9104 149.707 49.0435 149.707 49.2001C149.707 49.3567 149.652 49.4898 149.543 49.5994ZM148.756 56.8813V51.0088H149.531V56.8813H148.756ZM155.815 51.7605H154.124V55.3193C154.124 55.6403 154.187 55.8713 154.312 56.0122C154.437 56.1453 154.625 56.2158 154.876 56.2236C155.126 56.2236 155.439 56.2158 155.815 56.2001V56.8813C154.993 57.0066 154.375 56.9479 153.96 56.7052C153.552 56.4624 153.349 56.0005 153.349 55.3193V51.7605H152.116V51.0088H153.349V49.5994L154.124 49.3645V51.0088H155.815V51.7605ZM162.768 51.0088H163.544V56.8813H162.768V55.9652C162.33 56.6699 161.672 57.0223 160.795 57.0223C160.083 57.0223 159.519 56.807 159.104 56.3763C158.697 55.9378 158.493 55.3506 158.493 54.6145V51.0088H159.268V54.6145C159.268 55.1392 159.405 55.5463 159.679 55.836C159.961 56.1257 160.357 56.2706 160.866 56.2706C161.429 56.2706 161.888 56.0944 162.24 55.7421C162.592 55.3819 162.768 54.8299 162.768 54.086V51.0088ZM169.823 51.7605H168.131V55.3193C168.131 55.6403 168.194 55.8713 168.319 56.0122C168.445 56.1453 168.633 56.2158 168.883 56.2236C169.134 56.2236 169.447 56.2158 169.823 56.2001V56.8813C169.001 57.0066 168.382 56.9479 167.967 56.7052C167.56 56.4624 167.356 56.0005 167.356 55.3193V51.7605H166.123V51.0088H167.356V49.5994L168.131 49.3645V51.0088H169.823V51.7605ZM174.999 50.8679C175.868 50.8679 176.569 51.1772 177.101 51.7957C177.642 52.4065 177.912 53.1308 177.912 53.9686C177.912 54.0547 177.904 54.1761 177.888 54.3327H172.732C172.811 54.9277 173.061 55.4015 173.484 55.7538C173.915 56.0983 174.443 56.2706 175.07 56.2706C175.516 56.2706 175.9 56.1806 176.221 56.0005C176.549 55.8125 176.796 55.5698 176.961 55.2723L177.642 55.6716C177.383 56.0866 177.031 56.4155 176.585 56.6582C176.138 56.9009 175.629 57.0223 175.058 57.0223C174.134 57.0223 173.382 56.7326 172.803 56.1532C172.223 55.5737 171.934 54.8377 171.934 53.9451C171.934 53.0681 172.219 52.336 172.791 51.7487C173.363 51.1615 174.099 50.8679 174.999 50.8679ZM174.999 51.6196C174.388 51.6196 173.875 51.8036 173.46 52.1716C173.053 52.5318 172.811 53.0016 172.732 53.581H177.113C177.035 52.9624 176.796 52.4809 176.397 52.1363C175.997 51.7918 175.532 51.6196 174.999 51.6196Z" fill="black"/>
</svg>
